<svg version="1.1" xmlns="http://www.w3.org/2000/svg" xmlns:xlink="http://www.w3.org/1999/xlink" width="77.56839" height="67.91477" viewBox="0,0,77.56839,67.91477"><defs><linearGradient x1="240.00002" y1="148.85592" x2="240.00002" y2="213.95742" gradientUnits="userSpaceOnUse" id="color-1"><stop offset="0" stop-color="#ff0000"/><stop offset="1" stop-color="#000000"/></linearGradient><linearGradient x1="225.41566" y1="206.75375" x2="225.41566" y2="208.10073" gradientUnits="userSpaceOnUse" id="color-2"><stop offset="0" stop-color="#ff0000"/><stop offset="1" stop-color="#000000"/></linearGradient><linearGradient x1="228.29006" y1="206.97167" x2="228.29006" y2="207.97167" gradientUnits="userSpaceOnUse" id="color-3"><stop offset="0" stop-color="#ff0000"/><stop offset="1" stop-color="#000000"/></linearGradient><linearGradient x1="246.92064" y1="171.89974" x2="246.92064" y2="172.89974" gradientUnits="userSpaceOnUse" id="color-4"><stop offset="0" stop-color="#ff0000"/><stop offset="1" stop-color="#000000"/></linearGradient><linearGradient x1="255.88338" y1="174.8952" x2="255.88338" y2="181.58316" gradientUnits="userSpaceOnUse" id="color-5"><stop offset="0" stop-color="#ff0000"/><stop offset="1" stop-color="#000000"/></linearGradient><linearGradient x1="261.48447" y1="180.84931" x2="261.48447" y2="181.84931" gradientUnits="userSpaceOnUse" id="color-6"><stop offset="0" stop-color="#ff0000"/><stop offset="1" stop-color="#000000"/></linearGradient><linearGradient x1="261.41193" y1="177.05721" x2="261.41193" y2="178.05721" gradientUnits="userSpaceOnUse" id="color-7"><stop offset="0" stop-color="#ff0000"/><stop offset="1" stop-color="#000000"/></linearGradient><linearGradient x1="214.15373" y1="146.04265" x2="214.15373" y2="158.38612" gradientUnits="userSpaceOnUse" id="color-8"><stop offset="0" stop-color="#ff0000"/><stop offset="1" stop-color="#000000"/></linearGradient><linearGradient x1="222.60305" y1="147.91321" x2="222.60305" y2="153.74943" gradientUnits="userSpaceOnUse" id="color-9"><stop offset="0" stop-color="#ff0000"/><stop offset="1" stop-color="#000000"/></linearGradient><linearGradient x1="222.24942" y1="149.31613" x2="222.24942" y2="157.85052" gradientUnits="userSpaceOnUse" id="color-10"><stop offset="0" stop-color="#ff0000"/><stop offset="1" stop-color="#000000"/></linearGradient><linearGradient x1="218.96379" y1="154.77338" x2="218.96379" y2="156.68048" gradientUnits="userSpaceOnUse" id="color-11"><stop offset="0" stop-color="#ff0000"/><stop offset="1" stop-color="#000000"/></linearGradient><linearGradient x1="218.26432" y1="157.05465" x2="218.26432" y2="158.30521" gradientUnits="userSpaceOnUse" id="color-12"><stop offset="0" stop-color="#ff0000"/><stop offset="1" stop-color="#000000"/></linearGradient><linearGradient x1="220.96905" y1="158.20125" x2="220.96905" y2="159.57798" gradientUnits="userSpaceOnUse" id="color-13"><stop offset="0" stop-color="#ff0000"/><stop offset="1" stop-color="#000000"/></linearGradient><linearGradient x1="219.34338" y1="159.6887" x2="219.34338" y2="160.6887" gradientUnits="userSpaceOnUse" id="color-14"><stop offset="0" stop-color="#ff0000"/><stop offset="1" stop-color="#000000"/></linearGradient><linearGradient x1="246.6157" y1="160.59647" x2="246.6157" y2="161.59647" gradientUnits="userSpaceOnUse" id="color-15"><stop offset="0" stop-color="#ff0000"/><stop offset="1" stop-color="#000000"/></linearGradient><linearGradient x1="224.81686" y1="161.90999" x2="224.81686" y2="162.90999" gradientUnits="userSpaceOnUse" id="color-16"><stop offset="0" stop-color="#ff0000"/><stop offset="1" stop-color="#000000"/></linearGradient><linearGradient x1="225.82438" y1="162.89102" x2="225.82438" y2="163.94832" gradientUnits="userSpaceOnUse" id="color-17"><stop offset="0" stop-color="#ff0000"/><stop offset="1" stop-color="#000000"/></linearGradient><linearGradient x1="228.56609" y1="163.84375" x2="228.56609" y2="164.84375" gradientUnits="userSpaceOnUse" id="color-18"><stop offset="0" stop-color="#ff0000"/><stop offset="1" stop-color="#000000"/></linearGradient><linearGradient x1="231.11712" y1="164.48329" x2="231.11712" y2="165.48329" gradientUnits="userSpaceOnUse" id="color-19"><stop offset="0" stop-color="#ff0000"/><stop offset="1" stop-color="#000000"/></linearGradient><linearGradient x1="227.90185" y1="164.56777" x2="227.90185" y2="165.56777" gradientUnits="userSpaceOnUse" id="color-20"><stop offset="0" stop-color="#ff0000"/><stop offset="1" stop-color="#000000"/></linearGradient><linearGradient x1="236.1236" y1="165.23864" x2="236.1236" y2="166.82937" gradientUnits="userSpaceOnUse" id="color-21"><stop offset="0" stop-color="#ff0000"/><stop offset="1" stop-color="#000000"/></linearGradient><linearGradient x1="235.66763" y1="166.23113" x2="235.66763" y2="167.23113" gradientUnits="userSpaceOnUse" id="color-22"><stop offset="0" stop-color="#ff0000"/><stop offset="1" stop-color="#000000"/></linearGradient><linearGradient x1="248.81625" y1="169.39219" x2="248.81625" y2="170.39219" gradientUnits="userSpaceOnUse" id="color-23"><stop offset="0" stop-color="#ff0000"/><stop offset="1" stop-color="#000000"/></linearGradient><linearGradient x1="212.38664" y1="195.70267" x2="212.38664" y2="196.70267" gradientUnits="userSpaceOnUse" id="color-24"><stop offset="0" stop-color="#ff0000"/><stop offset="1" stop-color="#000000"/></linearGradient><linearGradient x1="216.14689" y1="196.54755" x2="216.14689" y2="197.71808" gradientUnits="userSpaceOnUse" id="color-25"><stop offset="0" stop-color="#ff0000"/><stop offset="1" stop-color="#000000"/></linearGradient><linearGradient x1="212.52416" y1="197.18737" x2="212.52416" y2="198.18737" gradientUnits="userSpaceOnUse" id="color-26"><stop offset="0" stop-color="#ff0000"/><stop offset="1" stop-color="#000000"/></linearGradient><linearGradient x1="226.21979" y1="197.21664" x2="226.21979" y2="198.21664" gradientUnits="userSpaceOnUse" id="color-27"><stop offset="0" stop-color="#ff0000"/><stop offset="1" stop-color="#000000"/></linearGradient><linearGradient x1="231.45889" y1="197.32906" x2="231.45889" y2="198.32906" gradientUnits="userSpaceOnUse" id="color-28"><stop offset="0" stop-color="#ff0000"/><stop offset="1" stop-color="#000000"/></linearGradient><linearGradient x1="210.23613" y1="198.15193" x2="210.23613" y2="199.15193" gradientUnits="userSpaceOnUse" id="color-29"><stop offset="0" stop-color="#ff0000"/><stop offset="1" stop-color="#000000"/></linearGradient><linearGradient x1="212.96768" y1="198.72205" x2="212.96768" y2="200.64733" gradientUnits="userSpaceOnUse" id="color-30"><stop offset="0" stop-color="#ff0000"/><stop offset="1" stop-color="#000000"/></linearGradient><linearGradient x1="222.87918" y1="198.79744" x2="222.87918" y2="199.79744" gradientUnits="userSpaceOnUse" id="color-31"><stop offset="0" stop-color="#ff0000"/><stop offset="1" stop-color="#000000"/></linearGradient><linearGradient x1="225.47635" y1="198.85337" x2="225.47635" y2="199.85337" gradientUnits="userSpaceOnUse" id="color-32"><stop offset="0" stop-color="#ff0000"/><stop offset="1" stop-color="#000000"/></linearGradient><linearGradient x1="208.35431" y1="200.09746" x2="208.35431" y2="201.22596" gradientUnits="userSpaceOnUse" id="color-33"><stop offset="0" stop-color="#ff0000"/><stop offset="1" stop-color="#000000"/></linearGradient><linearGradient x1="216.32235" y1="200.07785" x2="216.32235" y2="201.22393" gradientUnits="userSpaceOnUse" id="color-34"><stop offset="0" stop-color="#ff0000"/><stop offset="1" stop-color="#000000"/></linearGradient><linearGradient x1="213.98927" y1="200.52247" x2="213.98927" y2="204.17882" gradientUnits="userSpaceOnUse" id="color-35"><stop offset="0" stop-color="#ff0000"/><stop offset="1" stop-color="#000000"/></linearGradient><linearGradient x1="215.18832" y1="201.19156" x2="215.18832" y2="202.19156" gradientUnits="userSpaceOnUse" id="color-36"><stop offset="0" stop-color="#ff0000"/><stop offset="1" stop-color="#000000"/></linearGradient><linearGradient x1="233.89383" y1="201.42539" x2="233.89383" y2="202.42539" gradientUnits="userSpaceOnUse" id="color-37"><stop offset="0" stop-color="#ff0000"/><stop offset="1" stop-color="#000000"/></linearGradient><linearGradient x1="217.70922" y1="202.21763" x2="217.70922" y2="203.21763" gradientUnits="userSpaceOnUse" id="color-38"><stop offset="0" stop-color="#ff0000"/><stop offset="1" stop-color="#000000"/></linearGradient><linearGradient x1="217.83043" y1="203.9974" x2="217.83043" y2="204.9974" gradientUnits="userSpaceOnUse" id="color-39"><stop offset="0" stop-color="#ff0000"/><stop offset="1" stop-color="#000000"/></linearGradient><linearGradient x1="233.19238" y1="203.9974" x2="233.19238" y2="204.9974" gradientUnits="userSpaceOnUse" id="color-40"><stop offset="0" stop-color="#ff0000"/><stop offset="1" stop-color="#000000"/></linearGradient><linearGradient x1="220.3009" y1="204.80088" x2="220.3009" y2="206.01721" gradientUnits="userSpaceOnUse" id="color-41"><stop offset="0" stop-color="#ff0000"/><stop offset="1" stop-color="#000000"/></linearGradient><linearGradient x1="227.58588" y1="204.46504" x2="227.58588" y2="205.46504" gradientUnits="userSpaceOnUse" id="color-42"><stop offset="0" stop-color="#ff0000"/><stop offset="1" stop-color="#000000"/></linearGradient><linearGradient x1="235.83073" y1="205.02965" x2="235.83073" y2="206.31579" gradientUnits="userSpaceOnUse" id="color-43"><stop offset="0" stop-color="#ff0000"/><stop offset="1" stop-color="#000000"/></linearGradient></defs><g transform="translate(-201.21582,-146.04265)"><g data-paper-data="{&quot;isPaintingLayer&quot;:true}" fill-rule="nonzero" stroke="none" stroke-width="1" stroke-linecap="butt" stroke-linejoin="miter" stroke-miterlimit="10" stroke-dasharray="" stroke-dashoffset="0" style="mix-blend-mode: normal"><path d="M232.82049,206.93526c-0.0605,-0.04838 -0.09576,-0.0909 -0.09576,-0.12306c0,-0.21043 1.02881,-0.63131 1.96408,-0.79498c0.5144,-0.11691 0.84175,-0.07014 0.84175,0.07014c0,0.37412 1.66011,0.58455 1.96408,0.2572c0.18705,-0.18705 0.18705,-0.30396 -0.04676,-0.37411c-0.46763,-0.16367 -0.07014,-0.53779 0.58455,-0.53779c0.5144,0 0.56117,-0.04675 0.28058,-0.37411c-0.35073,-0.44425 -1.80041,-1.19248 -3.10979,-1.63673c-0.67808,-0.23382 -0.74822,-0.28058 -0.2572,-0.21043c2.57202,0.44425 2.61878,0.44426 2.73569,-0.21043c0.09353,-0.46763 -0.02338,-0.72484 -0.42087,-1.05218c-0.65469,-0.5144 -0.72484,-0.84175 -0.14029,-0.63131c0.21043,0.07014 0.09353,-0.11691 -0.30397,-0.44425c-0.37412,-0.30397 -0.98204,-0.63131 -1.30939,-0.70146c-0.37412,-0.09353 -0.67808,-0.35072 -0.74822,-0.60792c-0.07014,-0.2572 -0.35073,-0.53779 -0.60793,-0.60793c-0.53779,-0.14029 -0.67807,-0.53779 -0.18705,-0.56117c0.14029,0 -0.1403,-0.16368 -0.63131,-0.35073c-0.5144,-0.18705 -0.95866,-0.28058 -1.0288,-0.21043c-0.07014,0.07014 -0.2572,-0.09353 -0.44425,-0.35073c-0.2572,-0.35073 -0.60793,-0.46763 -1.37953,-0.46763c-0.65469,0 -1.00543,0.09354 -0.9119,0.23382c0.09353,0.14029 0.25721,0.18705 0.37412,0.09353c0.32735,-0.21043 0.91189,0.35072 0.74822,0.74822c-0.07014,0.18705 -0.02338,0.35073 0.07014,0.35073c0.11691,0.02338 0.44425,0.07014 0.74822,0.09353c0.28058,0.02338 0.58455,0.11692 0.67808,0.21044c0.32735,0.32735 -0.11691,0.32734 -1.33276,-0.02338c-0.70146,-0.18705 -1.84718,-0.49102 -2.54863,-0.65469c-0.70146,-0.18705 -1.33277,-0.42088 -1.40292,-0.53779c-0.07014,-0.11691 -0.35072,-0.18705 -0.60793,-0.14029c-0.65469,0.11691 -3.367,-0.37411 -3.53067,-0.63131c-0.07014,-0.11691 -0.53779,-0.21043 -1.05218,-0.21043c-0.53779,0 -0.88851,0.09354 -0.79498,0.23382c0.07014,0.11691 -0.37412,0.07014 -0.98205,-0.11692c-1.33277,-0.42087 -1.23924,-0.39749 -1.23924,-0.16367c0,0.11691 0.42087,0.32735 0.93527,0.49101c0.49101,0.14029 0.98205,0.37412 1.05219,0.49101c0.07014,0.11691 -0.21044,0.09353 -0.63131,-0.04676c-0.42087,-0.14029 -1.40292,-0.42087 -2.17452,-0.63131c-1.87055,-0.53779 -3.20332,-1.14571 -2.57201,-1.16909c0.42087,-0.02338 0.42087,-0.07015 -0.11691,-0.49102c-0.32735,-0.23382 -0.49101,-0.5144 -0.39749,-0.60792c0.09353,-0.09353 0.30397,0 0.46763,0.18705c0.14029,0.21043 0.63131,0.44426 1.0288,0.53779c0.65469,0.11691 0.74822,0.09353 0.63131,-0.21044c-0.07014,-0.21043 -0.28059,-0.37411 -0.44426,-0.37411c-0.14029,0 -0.46763,-0.21043 -0.70145,-0.46763c-0.23382,-0.2572 -0.56117,-0.46763 -0.72484,-0.46763c-0.46763,0 -1.56659,-0.46764 -1.44968,-0.60793c0.07014,-0.04676 0.58455,0.04676 1.14572,0.23382c1.37953,0.49101 1.87055,0.49101 1.26262,-0.02338c-0.44425,-0.35073 -0.44425,-0.35072 0.16368,-0.21043c0.86513,0.18705 1.05218,-0.23382 0.28058,-0.63131c-0.60793,-0.30397 -0.60792,-0.32735 -0.11691,-0.46763c0.2572,-0.07014 0.56117,-0.02338 0.63131,0.09353c0.07014,0.11691 0.42087,0.21043 0.81837,0.21043c0.84175,0 0.93527,-0.63131 0.09353,-0.84175c-0.32735,-0.07014 -0.58455,-0.25721 -0.58455,-0.3975c0,-0.14029 0.58455,-0.18705 1.63673,-0.09353c0.91189,0.07014 1.63673,0.09353 1.63673,0.04676c0,-0.02338 -0.35072,-0.28058 -0.74822,-0.56116c-0.74822,-0.46763 -0.74822,-0.49102 -0.18706,-0.49102l0.58455,-0.02338l-0.56117,-0.30396l-0.58454,-0.32735l0.79498,-0.16368l0.7716,-0.16367l-0.5144,-0.39749c-0.65469,-0.49101 -0.3975,-0.7716 0.42087,-0.44426c0.32735,0.11691 1.23924,0.28058 2.01085,0.32735c0.7716,0.07014 1.54321,0.16367 1.70688,0.21043c0.23382,0.09353 0.23382,0 0.02338,-0.37411c-0.14029,-0.28058 -0.21043,-0.67808 -0.14029,-0.91189c0.04676,-0.21043 -0.00001,-0.58455 -0.11692,-0.79498c-0.16367,-0.30397 -0.14029,-0.3975 0.09354,-0.35073c0.60793,0.07014 0.91189,-0.02338 0.74822,-0.28058c-0.07014,-0.14029 -0.44425,-0.21043 -0.81837,-0.11691c-0.53779,0.09353 -0.63131,0.04676 -0.5144,-0.2572c0.11691,-0.30397 0.44425,-0.35072 2.26804,-0.18705c3.55405,0.28058 3.29685,0.30397 3.2267,-0.30397c-0.07014,-0.42087 0.04676,-0.5144 0.5144,-0.5144c0.67808,0 0.7716,-0.18705 0.28058,-0.56117c-0.30397,-0.21043 -0.28058,-0.37412 0.11691,-1.1691c0.56117,-1.1691 0.56117,-2.03422 -0.02338,-2.7123c-0.2572,-0.30397 -0.46763,-0.81837 -0.46763,-1.14571c0,-0.32735 -0.07014,-0.98205 -0.14029,-1.44968c-0.11691,-0.74822 -0.21043,-0.81837 -0.98204,-0.86513c-0.49101,-0.02338 -1.35615,-0.16368 -1.98747,-0.30397c-1.0288,-0.23382 -1.12234,-0.21043 -1.56659,0.28058c-0.2572,0.30397 -0.44425,0.63131 -0.46763,0.72484c0,0.2572 -1.33277,0.88851 -1.87055,0.88851c-0.2572,0 -0.53779,-0.16367 -0.60793,-0.35072c-0.21043,-0.49101 1.66011,-3.4839 2.87597,-4.62962c0.93527,-0.86513 0.98205,-0.98204 0.63131,-1.35615c-0.18705,-0.21043 -0.32735,-0.70146 -0.28058,-1.05218c0.07014,-0.63131 -0.07014,-0.74822 -2.19789,-1.82378c-1.87055,-0.95866 -2.29144,-1.28601 -2.40834,-1.8004c-0.09353,-0.44425 -0.53778,-0.9119 -1.40291,-1.47306c-0.67808,-0.46763 -1.4263,-1.1691 -1.6835,-1.58997c-0.30397,-0.49101 -0.79498,-0.88851 -1.37953,-1.09895c-0.49101,-0.18705 -1.37953,-0.74822 -1.96407,-1.23924c-1.33277,-1.1691 -3.6242,-2.4551 -5.33107,-2.99288c-0.72484,-0.23382 -2.43172,-0.95866 -3.78787,-1.61335c-1.35615,-0.65469 -2.61877,-1.19247 -2.82921,-1.19247c-0.58455,0 -1.05218,-0.67808 -0.7716,-1.09895c0.11691,-0.18705 1.00543,-0.60793 1.96408,-0.93527c1.70688,-0.56117 1.80041,-0.56117 3.53067,-0.21043c2.87597,0.56117 4.20874,1.02881 5.77533,1.98747c1.23924,0.74822 1.40292,0.9119 0.98204,1.0288c-0.28058,0.07014 -0.86513,-0.07014 -1.35614,-0.35073l-0.86513,-0.46763l0.58455,0.49101c0.32735,0.2572 0.65469,0.49101 0.74822,0.49101c0.09353,0 0.11691,0.1403 0.04676,0.30397c-0.09353,0.28058 0.72484,1.07556 1.70688,1.63673c0.35073,0.21043 -0.32735,-1.1691 -0.67808,-1.37953c-0.16367,-0.09353 -0.18705,-0.04675 -0.09353,0.09354c0.09353,0.16367 0.07014,0.28058 -0.07014,0.28058c-0.3975,0 -0.5144,-0.42087 -0.14029,-0.56116c0.18705,-0.07014 0.81837,0.18705 1.37953,0.56116c0.56117,0.37412 1.49644,0.88851 2.0576,1.14572c1.14572,0.49101 1.63673,0.95866 1.00542,0.95866c-0.28058,0 -0.32734,0.09353 -0.11691,0.44425c0.16367,0.32735 0.14029,0.49101 -0.07014,0.56117c-0.14029,0.04676 0.09354,0.28058 0.53779,0.5144c0.60793,0.30397 0.74822,0.32735 0.53779,0.07014c-0.18705,-0.23382 -0.23382,-0.56117 -0.09353,-1.0288c0.11691,-0.37412 0.23383,-0.5144 0.23383,-0.32735c0.02338,0.2572 3.03964,2.08099 4.23212,2.52524c0.09353,0.04676 0.23382,-0.16367 0.30397,-0.44425c0.07014,-0.28058 0.28059,-0.44425 0.44426,-0.39749c0.42087,0.14029 0.44425,1.63673 0.02338,1.98746c-0.18705,0.14029 -0.23382,0.32735 -0.09353,0.3975c0.11691,0.09353 0.28058,0.04675 0.37412,-0.09354c0.07014,-0.11691 0.35072,-0.23382 0.6313,-0.23382c0.3975,0 0.42088,0.04676 0.18705,0.35073c-0.2572,0.30397 -0.21043,0.35072 0.25721,0.30396c0.44425,-0.04676 0.56117,0.02338 0.5144,0.42088c-0.04676,0.44425 0.07014,0.49102 0.88851,0.49102c0.56117,0 1.09895,0.16367 1.33277,0.3975c0.21043,0.21043 0.28058,0.37411 0.14029,0.37411c-0.14029,0 -0.2572,0.1403 -0.2572,0.32735c0,0.18705 0.5144,0.56117 1.12233,0.79498l1.09895,0.46763l0.93527,-1.26262l-0.79498,-0.53779c-0.44425,-0.30397 -0.79498,-0.63131 -0.79498,-0.74822c0,-0.11691 -0.1403,-0.14029 -0.32735,-0.07014c-0.18705,0.07014 -0.39749,0.02338 -0.49101,-0.11691c-0.09353,-0.16367 0.09353,-0.2572 0.49101,-0.2572c0.42087,0 0.93528,0.28058 1.4263,0.74822c0.58455,0.56117 0.7716,0.65469 0.7716,0.35073c0,-0.21043 0.32734,-0.56117 0.72484,-0.74822c0.67808,-0.37412 0.72484,-0.35073 1.51982,0.32735c0.44425,0.3975 0.98204,0.72484 1.16909,0.72484c0.18705,0 0.30396,0.09353 0.21043,0.23382c-0.07014,0.11691 0.16367,0.3975 0.5144,0.60793c0.35073,0.23382 0.77161,0.56117 0.9119,0.72484c0.28058,0.32735 1.12234,0.16367 0.88851,-0.18705c-0.07014,-0.11691 0,-0.21043 0.14029,-0.21043c0.14029,0 0.21044,-0.09354 0.1403,-0.18706c-0.07014,-0.11691 0.02338,-0.21043 0.21043,-0.21043c0.46763,0 0.63131,0.58455 0.2572,0.79498c-0.18705,0.11691 -0.37412,0.39749 -0.42088,0.65469c-0.04676,0.32735 0.07014,0.49102 0.44426,0.53779c0.3975,0.07014 0.49101,-0.02338 0.39749,-0.2572c-0.07014,-0.18705 -0.02338,-0.42087 0.11691,-0.5144c0.35073,-0.21043 0.32735,-0.98205 -0.02338,-1.12234c-0.23382,-0.09353 -0.23382,-0.14029 -0.02338,-0.14029c0.14029,-0.02338 0.35072,0.07014 0.42087,0.21043c0.07014,0.11691 0.32735,0.23383 0.56117,0.23383c0.35073,0 0.44426,-0.28058 0.56117,-1.9407c0.09353,-1.05218 0.09353,-2.50186 0,-3.20332c-0.18705,-1.63673 -1.91732,-5.44798 -2.99288,-6.54694c-0.91189,-0.93527 -0.95866,-1.26262 -0.56117,-3.50728c0.32735,-1.89394 0.79498,-3.03965 1.26263,-3.03965c0.18705,0 0.35072,-0.09354 0.35072,-0.21043c0,-0.11691 0.2572,-0.18705 0.58455,-0.16367c0.32735,0 0.58455,0.09353 0.58455,0.18705c0,0.09353 0.28058,0.07014 0.60793,-0.04676c0.88851,-0.35073 1.96408,-0.28059 2.10437,0.11691c0.09353,0.18705 0.28058,0.35073 0.44425,0.35073c0.21043,0 0.32735,1.07557 0.42088,4.37242c0.11691,4.27888 0.1403,4.46594 1.07556,7.64587c0.53779,1.77702 0.95866,3.57743 0.95866,3.9983c0,0.42087 0.07014,1.07556 0.1403,1.47305c0.14029,0.63131 0.21043,0.67808 0.58454,0.44426c0.60793,-0.37412 1.12234,0.11691 0.67808,0.65469c-0.23382,0.28058 -0.35073,0.30397 -0.65469,0.07014c-0.30397,-0.2572 -0.32734,-0.23382 -0.23382,0.04676c0.04676,0.18705 0.30396,0.35073 0.56117,0.35073c0.23382,0.02338 0.42088,0.16367 0.37412,0.32734c-0.02338,0.16367 0.04676,0.23382 0.16367,0.14029c0.14029,-0.07014 0.18706,-0.28058 0.09354,-0.46763c-0.07014,-0.2572 -0.02338,-0.30396 0.23382,-0.21043c0.21043,0.07014 0.42087,0.28058 0.49101,0.46763c0.07014,0.18705 0.28059,0.32735 0.46764,0.32735c0.16367,0 0.37411,0.23382 0.46763,0.5144c0.21043,0.79498 0.16367,1.12233 -0.11691,1.12233c-0.11691,0 -0.18705,-0.09354 -0.11691,-0.21043c0.07014,-0.11691 -0.21043,-0.32735 -0.6313,-0.46763l-0.74822,-0.2572l0.81837,0.70145c0.79498,0.65469 0.81837,0.65469 1.0288,0.21044c0.11691,-0.2572 0.35073,-0.42088 0.5144,-0.35073c0.18705,0.07014 0.37411,0.02338 0.44425,-0.09353c0.09353,-0.14029 0.35072,-0.23382 0.60792,-0.23382c0.23382,0 0.44426,-0.16368 0.44426,-0.35073c0,-0.18705 -0.16367,-0.35073 -0.35072,-0.35073c-0.18705,0 -0.74822,-0.21043 -1.21586,-0.46763c-0.49101,-0.2572 -1.05218,-0.46763 -1.26263,-0.46763c-0.53779,0 -1.05218,-0.60793 -0.6313,-0.74822c0.35073,-0.11691 -0.11692,-0.67807 -0.86513,-1.00542c-0.3975,-0.16367 -0.42088,-0.21043 -0.07014,-0.28058c0.49101,-0.11691 1.35615,0.60793 1.35615,1.14572c0,0.21043 0.11691,0.46763 0.23382,0.53778c0.14029,0.07014 0.23383,-0.07014 0.23383,-0.32734c0,-0.65469 0.35072,-0.79498 1.23924,-0.5144c0.05228,0.01845 0.11751,0.03811 0.19354,0.05867c0.64169,0.68403 1.40744,1.3676 2.30847,2.04959c1.27705,0.96659 10.08278,-1.44826 10.91476,-1.4806c2.2505,-0.08747 4.59423,0.6229 6.92868,1.30684c0.5851,2.42887 1.73774,4.81041 3.47673,6.91305c1.13001,1.36631 3.82519,0.91477 5.18585,1.71572c0.16294,0.09591 0.37326,0.47105 0.61389,1.01573c-0.00748,12.31239 -0.02919,22.01696 -0.06512,28.55436c-0.37127,0.91247 -0.63545,1.83993 -1.01466,2.94639c-1.2197,3.55869 -6.69912,3.14244 -9.57313,3.40793c-12.6986,1.17303 -16.65994,-3.96972 -27.47201,-5.07508c-3.93354,-1.31611 -5.3771,-1.87712 -7.8387,-1.77414zM249.93382,170.61703c0,0.02338 -0.30397,0.09354 -0.65469,0.1403c-0.32735,0.04676 -0.67808,0.23382 -0.74822,0.42087c-0.07014,0.23382 0,0.28058 0.28058,0.18705c0.21043,-0.07014 0.32735,-0.07014 0.2572,0c-0.14029,0.18705 -6.82751,0.30397 -7.57573,0.1403c-0.35073,-0.07014 -0.49102,0.04676 -0.5144,0.49101c-0.04676,0.42087 -0.02337,0.46763 0.11692,0.18705c0.14029,-0.32735 0.5144,-0.23382 3.0864,0.79498c2.15114,0.86513 3.1098,1.12234 3.67096,1.05218c0.49101,-0.09353 0.84175,-0.02338 1.0288,0.21044c0.14029,0.18705 0.35073,0.32734 0.46764,0.32734c0.11691,0 0.7716,0.35073 1.44968,0.79498c0.65469,0.42087 1.6835,1.05218 2.26804,1.37953c0.58454,0.32735 1.26262,0.7716 1.51982,0.98204c0.44425,0.35073 0.44425,0.37412 -0.11692,0.07014c-0.32734,-0.16367 -0.63131,-0.30397 -0.70146,-0.30397c-0.07014,0 -0.37411,-0.16367 -0.70146,-0.32734c-0.67808,-0.35073 1.0288,1.26262 2.52524,2.36157c0.53779,0.3975 0.98204,0.93527 0.98204,1.16909c0,0.32735 0.18705,0.42088 0.81837,0.42088c0.81837,0 1.98746,0.42087 1.98746,0.72484c0,0.09353 0.44425,0.32734 0.98204,0.56117c0.53779,0.21043 1.23924,0.63131 1.51982,0.93528c0.60793,0.58455 1.70688,0.88851 2.0576,0.56116c0.11691,-0.14029 0.11691,-0.21043 -0.07014,-0.21043c-0.14029,0 -0.53779,-0.49101 -0.88851,-1.12233c-0.81837,-1.40292 -2.68891,-3.64758 -3.78787,-4.58285c-0.49101,-0.3975 -1.14571,-0.98204 -1.47305,-1.28601c-0.35072,-0.32735 -2.01084,-1.0288 -4.27888,-1.8004c-2.03422,-0.67808 -3.83463,-1.35615 -3.97492,-1.49644c-0.16367,-0.11691 -0.35073,-0.18705 -0.3975,-0.11691c-0.07014,0.04676 -0.23382,-0.11691 -0.39749,-0.35073c-0.16367,-0.2572 -0.18705,-0.46763 -0.07014,-0.46763c0.11691,0 0.28058,0.1403 0.35073,0.28058c0.07014,0.16367 0.11691,0.02338 0.07014,-0.32735c-0.07014,-0.49101 0.02338,-0.65469 0.44425,-0.74822c0.3975,-0.11691 0.5144,-0.2572 0.39749,-0.56117c-0.14029,-0.35073 -0.11691,-0.37411 0.30397,-0.04676c0.42087,0.32735 0.42088,0.32734 0.11691,-0.07014c-0.16367,-0.21043 -0.32735,-0.37412 -0.35073,-0.37412zM261.4377,174.45166c-0.95866,0.65469 -1.66011,1.84717 -1.47306,2.54862c0.07014,0.28058 0.04676,0.37411 -0.02338,0.21043c-0.14029,-0.32735 -0.79498,-0.14029 -0.79498,0.23383c0,0.14029 0.07014,0.16367 0.1403,0.09353c0.09353,-0.07014 0.46763,0.28058 0.84175,0.81837c0.53779,0.72484 0.74822,0.86513 0.91189,0.63131c0.14029,-0.2572 0.2572,-0.2572 0.49101,-0.02338c0.14029,0.14029 0.21044,0.28058 0.11692,0.28058c-0.11691,0 0.16367,0.49101 0.56116,1.09895c0.42087,0.60793 0.81837,0.95866 0.86513,0.79498c0.21044,-0.65469 -0.86512,-3.83463 -1.47305,-4.27888c-0.16367,-0.11691 -0.16367,-0.18705 0,-0.18705c0.14029,0 0.07014,-0.11692 -0.11692,-0.23383c-0.23383,-0.14029 -0.25721,-0.23382 -0.04676,-0.23382c0.16367,0 0.30396,-0.35073 0.30396,-0.88851c0.02338,-0.58455 0.07014,-0.67807 0.14029,-0.30396l0.11692,0.53779l0.32734,-0.49101c0.21044,-0.28058 0.5144,-0.49102 0.70146,-0.49102c0.18705,0 0.32734,-0.16368 0.32734,-0.35073c0,-0.53779 -0.95866,-0.42087 -1.91731,0.23383zM244.60274,168.53604c-0.04676,0.02338 -0.86513,0.09353 -1.82378,0.18705c-2.08098,0.18705 -3.97492,0.67807 -3.97492,1.07556c0,0.42087 0.60793,0.49101 3.10979,0.37412c1.77702,-0.07014 2.22128,-0.16367 2.03423,-0.3975c-0.18705,-0.21043 -0.09353,-0.2572 0.35072,-0.16367c0.42087,0.07014 0.58455,0 0.58455,-0.23382c0,-0.2572 -0.18705,-0.32734 -0.63131,-0.2572c-0.60793,0.07014 -0.63131,0.07014 -0.11691,-0.1403c0.28058,-0.14029 0.5144,-0.30396 0.5144,-0.37411c0,-0.07014 -0.02338,-0.09353 -0.04676,-0.07014zM268.5458,182.70547c-0.5144,0.07014 -0.53779,0.09353 -0.11691,0.39749c0.23383,0.18705 0.60792,0.35073 0.86513,0.35073c0.23383,0 0.88852,0.30397 1.47306,0.70146c1.19248,0.81837 1.37953,0.84174 1.56659,0.30396c0.14029,-0.37412 -0.18706,-0.7716 -0.65469,-0.7716c-0.11691,0 -0.39749,-0.16367 -0.63131,-0.37411c-0.46763,-0.42087 -1.73026,-0.72484 -2.50186,-0.60793zM265.52953,185.60482c0.04676,0.16367 0.28058,0.30397 0.53779,0.30397c0.23383,0 0.44425,0.11692 0.44425,0.2572c0,0.30397 1.07556,1.23924 2.15114,1.84717c0.39749,0.23382 1.12234,0.93527 1.61335,1.56659c0.56117,0.74822 0.93527,1.07556 1.09895,0.9119c0.25721,-0.2572 0,-0.79498 -0.32734,-0.60793c-0.11691,0.09353 -0.21043,0.04676 -0.21043,-0.04676c0,-0.11691 -0.25721,-0.46763 -0.56117,-0.81837c-0.32734,-0.32735 -0.5144,-0.67808 -0.42087,-0.79498c0.09353,-0.09353 0.04676,-0.09353 -0.09353,-0.02338c-0.14029,0.09353 -0.46763,-0.07014 -0.70146,-0.35072c-0.25721,-0.2572 -0.95866,-0.86513 -1.61335,-1.35615c-1.35614,-0.98204 -2.08099,-1.30939 -1.91732,-0.88851zM271.7725,189.29916c0,0.11691 0.09353,0.23382 0.21043,0.23382c0.25721,0 0.02338,2.12776 -0.30396,2.57202c-0.11691,0.18705 0.04676,0.09353 0.39749,-0.23383c0.53779,-0.46763 0.63131,-0.70145 0.53779,-1.40291c-0.07014,-0.44425 -0.11691,-0.95866 -0.14029,-1.12234c0,-0.32735 -0.70146,-0.3975 -0.70146,-0.04676zM241.44619,170.82747h-1.00542c-0.98204,0 -1.00542,0 -0.58455,0.46764c0.23382,0.2572 0.44425,0.46763 0.46763,0.46763c0.02338,0 0.28058,-0.21043 0.58455,-0.46763zM244.1351,170.38321c-0.04676,0.02338 -0.65469,0.21043 -1.35615,0.44425c-0.70146,0.23382 -1.07556,0.42088 -0.81837,0.44426c0.70146,0.02338 2.22127,-0.44426 2.22127,-0.67808c0,-0.14029 -0.02338,-0.23382 -0.04676,-0.21043zM274.46142,189.7668c-0.42087,0.02338 -0.3975,0.04676 0.11691,0.35073c0.65469,0.37412 1.40292,0.44425 1.40292,0.14029c0,-0.11691 -0.23382,-0.2572 -0.5144,-0.35072c-0.30396,-0.07014 -0.74822,-0.14029 -1.00542,-0.14029zM254.00226,173.14228c0,0.18705 1.21586,0.53778 1.37953,0.37411c0.02338,-0.04676 0,-0.18705 -0.09353,-0.32734c-0.18705,-0.30397 -1.28601,-0.35073 -1.28601,-0.04676zM217.05887,195.75256c-0.53779,-0.09353 -0.72484,-0.07014 -0.56117,0.09353c0.11691,0.11691 0.58455,0.30397 1.0288,0.37412c0.53779,0.09353 0.74822,0.07014 0.58455,-0.07014c-0.11691,-0.14029 -0.60793,-0.30396 -1.05219,-0.39749zM228.56277,197.59974c0.23382,0.2572 1.58997,0.53779 1.58997,0.35073c0,-0.09353 -0.23382,-0.23382 -0.5144,-0.32735c-0.67808,-0.16367 -1.23924,-0.18705 -1.07556,-0.02338zM222.97449,164.28053c-0.46763,0 -0.18705,0.37412 0.3975,0.53779c0.3975,0.09353 0.44425,0.07014 0.21043,-0.21043c-0.14029,-0.18705 -0.42088,-0.32735 -0.60793,-0.32735zM274.4848,185.09043c-0.18705,0 -0.42087,0.09354 -0.49101,0.23382c-0.07014,0.11691 0.07014,0.23382 0.32735,0.23382c0.28059,0 0.49101,-0.11691 0.49101,-0.23382c0,-0.14029 -0.1403,-0.23382 -0.32735,-0.23382zM249.16221,167.78782c-0.30397,0 -0.53779,0.09354 -0.53779,0.23382c0,0.30397 0.2572,0.30397 0.70145,0c0.28058,-0.18705 0.2572,-0.23382 -0.16367,-0.23382zM265.15543,184.10839c-0.07014,-0.16367 -0.1403,-0.07014 -0.1403,0.21043c-0.02338,0.28058 -0.21043,0.56117 -0.42087,0.60793c-0.39749,0.09353 -0.39749,0.11691 0,0.14029c0.23383,0 0.46763,-0.1403 0.53779,-0.32735c0.07014,-0.18705 0.09354,-0.46763 0.02338,-0.6313zM262.77046,184.8566c0.07014,0.11691 0.32734,0.23382 0.53779,0.23382c0.35072,0 0.35072,-0.04676 0.04676,-0.23382c-0.46763,-0.30397 -0.7716,-0.30397 -0.58455,0zM241.4228,172.69802c-0.07014,0 0.11692,0.2572 0.42088,0.58455c0.30397,0.32735 0.60792,0.58455 0.65469,0.58455c0.07014,0 -0.11691,-0.2572 -0.42088,-0.58455c-0.30397,-0.32735 -0.60793,-0.58455 -0.65469,-0.58455zM219.74779,196.07992c-0.11691,0 -0.07014,0.11691 0.11691,0.23382c0.18705,0.11691 0.46763,0.23382 0.58454,0.23382c0.14029,0 0.07014,-0.11692 -0.11691,-0.23382c-0.18705,-0.11691 -0.44426,-0.23382 -0.58455,-0.23382zM243.29335,174.75563c-0.18705,-0.18705 -0.21043,-0.09353 -0.11691,0.30397c0.09353,0.30397 0.18706,0.42087 0.25721,0.23382c0.04676,-0.16367 -0.02339,-0.42088 -0.1403,-0.53779zM244.67289,170.28968c-0.23382,-0.21043 -0.2572,-0.18706 -0.11692,0.14029c0.07014,0.23382 0.21043,0.35073 0.28058,0.28058c0.07014,-0.07014 0,-0.2572 -0.16367,-0.42087zM252.43568,206.0406c-0.32735,-0.14029 -0.35072,-0.11691 -0.14029,0.11691c0.16367,0.16367 0.35073,0.23382 0.42088,0.16367c0.07014,-0.07014 -0.04676,-0.21043 -0.28059,-0.28058zM263.28488,178.00571c-0.07014,-0.14029 -0.11692,0.02338 -0.11692,0.42088c0,0.37412 0.04676,0.5144 0.11692,0.28058c0.04676,-0.21043 0.04676,-0.53779 0,-0.70146zM206.77084,155.20836c-0.32735,0 -0.44425,0.04676 -0.28058,0.11692c0.14029,0.04676 0.42088,0.04676 0.58455,0c0.14029,-0.07014 0.02338,-0.11692 -0.30397,-0.11692zM257.04191,169.93896c-0.32734,0 -0.44425,0.04676 -0.28058,0.11691c0.14029,0.04676 0.42088,0.04676 0.58455,0c0.14029,-0.07014 0.02338,-0.11691 -0.30397,-0.11691zM245.49125,169.96234c-0.07014,-0.09353 -0.1403,0.04675 -0.11692,0.30396c0,0.2572 0.07014,0.32735 0.1403,0.1403c0.07014,-0.16367 0.04676,-0.37411 -0.02338,-0.44425zM246.89417,184.2253c-0.07014,-0.09353 -0.14029,0.04676 -0.11691,0.30397c0,0.2572 0.07014,0.32734 0.14029,0.14029c0.07014,-0.16367 0.04676,-0.37411 -0.02338,-0.44425z" fill="url(#color-1)"/><path d="M223.7461,207.06941c-0.42087,-0.42087 -0.02338,-0.42087 1.19248,0c0.65469,0.23382 1.26262,0.37411 1.33277,0.30396c0.07014,-0.07014 0.2572,-0.02337 0.42087,0.09354c0.10392,0.08907 0.32096,0.18757 0.55534,0.25959c-0.45794,0.10569 -0.9252,0.23035 -1.3912,0.37423c-0.53007,-0.0836 -1.73041,-0.65147 -2.11026,-1.03132z" fill="url(#color-2)"/><path d="M228.41646,207.49326c-0.08333,0.01399 -0.16734,0.02868 -0.25197,0.04405c-0.04469,-0.16051 0.04561,-0.17147 0.26229,-0.04579c-0.00344,0.00058 -0.00687,0.00116 -0.01032,0.00174z" fill="url(#color-3)"/><path d="M246.82402,172.25377c0.72484,-0.02338 1.33277,0.07014 1.33277,0.18705c0,0.18705 -1.84717,0.11692 -2.4551,-0.09353c-0.11691,-0.04676 0.37412,-0.09353 1.12234,-0.09353z" fill="url(#color-4)"/><path d="M251.14967,175.01283c0.28058,0.16367 0.70146,0.23382 0.93527,0.16367c0.21043,-0.07014 0.56117,-0.02338 0.74822,0.11691c0.28058,0.18705 0.21043,0.21043 -0.23382,0.09353c-0.49101,-0.11691 -0.5144,-0.09353 -0.16368,0.11692c0.21043,0.14029 0.63131,0.18705 0.88851,0.11691c0.35072,-0.11691 0.44425,-0.09353 0.35072,0.09353c-0.23383,0.35073 0.16368,0.32735 0.53779,-0.04676c0.25721,-0.23382 0.30396,-0.21043 0.18705,0.11691c-0.16367,0.44425 0.07014,0.56117 0.44425,0.18705c0.14029,-0.14029 0.35072,-0.14029 0.56117,0c0.28059,0.18705 0.28059,0.23382 -0.11691,0.2572c-0.25721,0 0,0.14029 0.58454,0.30396c0.67808,0.21043 1.42629,0.67808 2.10437,1.33277c0.58455,0.56117 1.47306,1.40292 2.01085,1.84717c0.5144,0.44425 0.7716,0.70146 0.58455,0.56117c-0.21044,-0.14029 -0.63131,-0.3975 -0.95866,-0.53779l-0.58455,-0.28058l0.58455,0.53779c0.7716,0.70146 1.51982,1.58997 1.33277,1.58997c-0.07014,0 -0.28058,-0.1403 -0.44425,-0.30397c-0.16367,-0.14029 -0.93527,-0.74822 -1.70689,-1.30939c-0.7716,-0.56117 -1.77702,-1.37953 -2.22128,-1.82378c-0.46763,-0.44425 -1.84718,-1.26262 -3.15656,-1.84717c-1.286,-0.58455 -2.43173,-1.1691 -2.57202,-1.30939c-0.14029,-0.14029 0,-0.11691 0.30397,0.02338z" fill="url(#color-5)"/><path d="M261.0636,180.88168c0.07014,0 0.30396,0.21043 0.53779,0.46764c0.23383,0.2572 0.37411,0.46763 0.30396,0.46763c-0.07014,0 -0.30396,-0.21043 -0.53779,-0.46763c-0.23383,-0.2572 -0.37411,-0.46764 -0.30396,-0.46764z" fill="url(#color-6)"/><path d="M261.50785,177.3744c0.32734,0 0.2572,0.16367 -0.16367,0.32734c-0.18705,0.07014 -0.28059,0.04676 -0.21044,-0.09353c0.07014,-0.14029 0.23383,-0.23382 0.37412,-0.23382z" fill="url(#color-7)"/><path d="M211.14325,146.04266c0.23382,0 1.70688,1.23924 1.61335,1.35615c-0.07014,0.04676 0.07014,0.35072 0.30397,0.67807c0.42087,0.5144 0.58455,1.19247 1.21586,5.37784c0.23382,1.66011 0.86513,2.87598 1.44967,2.87598c0.16367,0.02338 0.63131,0.49102 1.07556,1.07556c0.72484,1.00542 0.74822,1.07556 0.23382,0.91189c-0.93527,-0.30397 -2.94612,-1.94069 -3.08641,-2.50186c-0.07014,-0.30397 -0.18705,-1.58997 -0.28058,-2.87597c-0.21043,-3.08641 -0.63131,-4.3958 -1.87055,-5.63504c-0.56117,-0.53779 -0.95866,-1.05218 -0.86513,-1.12233c0.07014,-0.07014 0.16367,-0.1403 0.21043,-0.1403z" fill="url(#color-8)"/><path d="M224.8918,147.91321c0.30397,0 0.11691,0.21043 -0.58455,0.60793c-1.9407,1.09895 -3.27346,2.68892 -3.27346,3.90478c0,0.60793 -0.58455,1.51983 -0.81837,1.28601c-0.23382,-0.23382 0.56117,-2.1979 1.33277,-3.25008c0.35073,-0.49101 1.14572,-1.26263 1.75365,-1.73026c0.63131,-0.44425 1.33277,-0.81837 1.58997,-0.81837z" fill="url(#color-9)"/><path d="M224.1202,149.31613c0.74822,0 0.86513,0.37411 0.18705,0.58455c-0.2572,0.07014 -0.46763,0.23383 -0.46763,0.35073c0,0.11691 -0.46764,0.65469 -1.0288,1.21585c-1.00542,0.95866 -1.26262,1.58997 -1.30939,3.15656c0,0.16367 -0.28058,0.30397 -0.63131,0.32735c-0.60793,0.02338 -0.60793,0.02338 0.16367,0.2572c0.72484,0.21043 0.7716,0.2572 0.32735,0.42087c-0.28058,0.11691 -0.72484,0.65469 -1.00542,1.21586l-0.49101,1.00542l-0.04676,-0.93527c0,-0.5144 -0.04676,-1.09895 -0.07014,-1.28601c-0.02338,-0.18705 0.07014,-0.46763 0.18705,-0.6313c0.11691,-0.16367 0.14029,-0.3975 0.07014,-0.5144c-0.09353,-0.14029 0.04676,-0.35073 0.30397,-0.46764c0.32735,-0.18705 0.46763,-0.18705 0.53779,0.02338c0.07014,0.16367 0.28058,-0.44425 0.5144,-1.33277c0.30397,-1.26262 0.60792,-1.84717 1.26262,-2.52524c0.58455,-0.58455 1.05219,-0.86513 1.49644,-0.86513zM223.3486,150.27478c-0.18705,-0.02338 -0.56117,0.14029 -0.81837,0.35073c-0.44425,0.35073 -0.44425,0.35072 0.02338,0.14029c0.2572,-0.11691 0.63131,-0.28058 0.81837,-0.35072c0.30397,-0.11691 0.30397,-0.14029 -0.02338,-0.14029z" fill="url(#color-10)"/><path d="M219.06972,155.86305c-0.16367,0.56117 -0.35073,0.91189 -0.42088,0.79498c-0.07014,-0.11691 0.02338,-0.60793 0.21043,-1.09895c0.46763,-1.1691 0.60793,-1.00542 0.21044,0.30397z" fill="url(#color-11)"/><path d="M217.85385,157.38288c0.60793,0.3975 0.63131,0.39749 0.95866,-0.02338c0.32735,-0.42087 0.32734,-0.42088 0.35072,0.09353c0,0.35073 -0.09354,0.49101 -0.28058,0.37412c-0.18705,-0.11691 -0.21043,-0.04676 -0.11691,0.23382c0.14029,0.35073 0.04676,0.32734 -0.53779,-0.09354c-0.37412,-0.2572 -0.74822,-0.60793 -0.84175,-0.74822c-0.09353,-0.11691 0.14029,-0.04676 0.46763,0.16368z" fill="url(#color-12)"/><path d="M221.05717,158.20125c0.3975,0 1.30939,0.86513 1.09895,1.05218c-0.07014,0.07014 -0.30397,-0.09353 -0.53779,-0.35073c-0.46763,-0.5144 -1.0288,-0.65469 -0.60793,-0.16367c0.14029,0.18705 0.16367,0.3975 0.07014,0.49102c-0.09353,0.09353 -0.04676,0.14029 0.11691,0.09353c0.14029,-0.04676 0.2572,0 0.28058,0.09353c0.02338,0.21043 0,0.21043 -0.91189,0.02338c-0.93527,-0.18705 -1.05218,-0.42088 -0.42087,-0.86513c0.28058,-0.21043 0.70145,-0.37411 0.91189,-0.37411z" fill="url(#color-13)"/><path d="M219.25677,159.83797c0.04676,0 0.14029,0.16368 0.23382,0.35073c0.07014,0.18705 0.02338,0.35073 -0.09353,0.35073c-0.14029,0 -0.23383,-0.16368 -0.23383,-0.35073c0,-0.18705 0.04676,-0.35073 0.09353,-0.35073z" fill="url(#color-14)"/><path d="M246.62866,161.13183c-0.0375,-0.02722 -0.03553,-0.05231 0.00133,-0.07072c-0.00056,0.02357 -0.001,0.04715 -0.00133,0.07072z" fill="url(#color-15)"/><path d="M224.75151,162.17617c0.14029,0 0.2572,0.09354 0.2572,0.23382c0,0.11691 -0.04676,0.23382 -0.09353,0.23382c-0.07014,0 -0.18705,-0.11691 -0.2572,-0.23382c-0.07014,-0.14029 -0.02338,-0.23382 0.09353,-0.23382z" fill="url(#color-16)"/><path d="M226.03752,163.25173c0.23382,0.58455 0.16367,0.79498 -0.21044,0.65469c-0.18705,-0.09353 -0.35072,-0.35072 -0.35072,-0.58454c0,-0.53779 0.37412,-0.58455 0.56117,-0.07014z" fill="url(#color-17)"/><path d="M228.3757,164.14024c0.2572,0.07014 0.70146,0.14029 0.95866,0.16367c0.2572,0.02338 0.09353,0.11691 -0.35072,0.18705c-0.93527,0.18705 -1.47306,0.07014 -1.26263,-0.2572c0.09353,-0.11691 0.37411,-0.16367 0.65469,-0.09353z" fill="url(#color-18)"/><path d="M230.73727,164.74817c-0.09353,0.16367 0.04676,0.21043 0.42088,0.11691c0.32735,-0.09353 0.65469,-0.04676 0.72484,0.07014c0.09353,0.14029 -0.07014,0.18705 -0.37412,0.11691c-0.44425,-0.09353 -0.46763,-0.07014 -0.18705,0.1403c0.46763,0.32735 0.16367,0.32735 -0.58455,-0.02338c-0.42087,-0.18705 -0.5144,-0.32735 -0.30396,-0.46764c0.3975,-0.23382 0.46763,-0.23382 0.30396,0.04676z" fill="url(#color-19)"/><path d="M228.04836,165.0989c0.2572,0.30397 0.23382,0.32734 -0.09354,0.21043c-0.21043,-0.07014 -0.37411,-0.23383 -0.37411,-0.35073c0,-0.30397 0.14029,-0.2572 0.46764,0.14029z" fill="url(#color-20)"/><path d="M234.82911,165.23919c0.72484,-0.02338 2.33819,0.70146 2.78244,1.21586c0.3975,0.49101 0.23382,0.49101 -0.81837,0.04676c-0.46763,-0.18705 -0.95866,-0.28058 -1.12233,-0.18705c-0.14029,0.07014 -0.16367,0.04676 -0.07014,-0.04676c0.09353,-0.11691 -0.16368,-0.39749 -0.58455,-0.6313c-0.72484,-0.37412 -0.74822,-0.3975 -0.18705,-0.3975z" fill="url(#color-21)"/><path d="M235.6241,166.6421c0.2572,-0.02338 0.3975,0.04676 0.30397,0.11692c-0.07014,0.07014 -0.28059,0.09353 -0.44426,0.02338c-0.18705,-0.07014 -0.11691,-0.1403 0.1403,-0.1403z" fill="url(#color-22)"/><path d="M248.71795,169.65837c0.07014,0 0.18705,0.09354 0.2572,0.23382c0.07014,0.11691 0.02337,0.23382 -0.09354,0.23382c-0.14029,0 -0.2572,-0.11691 -0.2572,-0.23382c0,-0.14029 0.04676,-0.23382 0.09353,-0.23382z" fill="url(#color-23)"/><path d="M212.38249,196.12668c0.32735,0 0.44425,0.04676 0.30397,0.11691c-0.16367,0.04676 -0.44426,0.04676 -0.58455,0c-0.16367,-0.07014 -0.04676,-0.11691 0.28058,-0.11691z" fill="url(#color-24)"/><path d="M214.67392,196.54755c0.3975,0 2.73568,0.7716 2.94612,0.98204c0.37412,0.30397 -0.25721,0.23383 -1.19248,-0.16367c-0.44425,-0.18705 -1.0288,-0.35073 -1.26262,-0.35073c-0.23382,0 -0.49101,-0.11691 -0.56116,-0.23382c-0.07014,-0.14029 -0.04676,-0.23382 0.07014,-0.23382z" fill="url(#color-25)"/><path d="M211.28354,197.24901c0.28058,0 2.50187,0.74822 2.50187,0.84175c0,0.14029 -1.1691,-0.16367 -1.98747,-0.5144c-0.37412,-0.16367 -0.60793,-0.30397 -0.5144,-0.32735z" fill="url(#color-26)"/><path d="M226.3181,197.48282c0.04676,0 0.09354,0.09354 0.09354,0.23383c0,0.11691 -0.11692,0.23382 -0.2572,0.23382c-0.11691,0 -0.16367,-0.11692 -0.09353,-0.23382c0.07014,-0.14029 0.18705,-0.23383 0.2572,-0.23383z" fill="url(#color-27)"/><path d="M231.41535,197.74003c0.2572,-0.02338 0.3975,0.04676 0.30397,0.11691c-0.07014,0.07014 -0.28058,0.09353 -0.44425,0.02338c-0.18705,-0.07014 -0.11692,-0.14029 0.14029,-0.14029z" fill="url(#color-28)"/><path d="M210.13783,198.41811c0.07014,0 0.18705,0.09353 0.2572,0.23382c0.07014,0.11691 0.02338,0.23382 -0.09353,0.23382c-0.14029,0 -0.25721,-0.11692 -0.25721,-0.23382c0,-0.14029 0.04676,-0.23382 0.09353,-0.23382z" fill="url(#color-29)"/><path d="M212.26558,198.72207c0.18705,0 0.35073,0.09354 0.35073,0.21043c0,0.09353 0.18705,0.18705 0.42087,0.18705c0.23382,0 0.58455,0.21044 0.81837,0.46764c0.42087,0.49101 1.00543,0.65469 0.72484,0.18705c-0.09353,-0.16367 -0.07014,-0.18705 0.11691,-0.09353c0.21043,0.14029 0.21043,0.2572 0,0.5144c-0.21043,0.2572 -0.21043,0.32735 0.02338,0.32735c0.18705,0 0.2572,0.04676 0.21043,0.11691c-0.07014,0.04676 -0.70145,-0.11691 -1.40291,-0.37411c-0.70146,-0.2572 -1.54321,-0.58455 -1.89394,-0.72484c-0.74822,-0.2572 -0.88851,-0.67808 -0.18705,-0.49102c0.2572,0.07014 0.46764,0.02338 0.46764,-0.09353c0,-0.11691 0.16367,-0.23382 0.35072,-0.23382z" fill="url(#color-30)"/><path d="M223.51227,199.37676c0.14029,0.23382 -0.04676,0.2572 -0.7716,0.07014c-0.30397,-0.09353 -0.53779,-0.23382 -0.53779,-0.32735c0,-0.23382 1.14572,0 1.30939,0.2572z" fill="url(#color-31)"/><path d="M225.33606,199.11955c0.18705,0 0.42087,0.09354 0.49101,0.23382c0.07014,0.11691 -0.02338,0.23383 -0.21043,0.23383c-0.18705,0 -0.42087,-0.11692 -0.49101,-0.23383c-0.07014,-0.14029 0.02338,-0.23382 0.21043,-0.23382z" fill="url(#color-32)"/><path d="M207.5892,200.12498c0.5144,-0.07014 1.23924,0 1.61335,0.14029c0.53779,0.21043 0.60793,0.32735 0.37411,0.60793c-0.53779,0.63131 -1.09895,0.37411 -0.95866,-0.44426c0.02338,-0.11691 -0.11691,-0.14029 -0.32735,-0.04676c-0.21043,0.07014 -0.53779,0.14029 -0.72484,0.14029c-0.06747,0 -0.12051,0.00961 -0.15914,0.02731c-0.05388,-0.06149 -0.10922,-0.12152 -0.16599,-0.18015c-0.07604,-0.07854 -0.15458,-0.15457 -0.2355,-0.22827c0.19689,0.00514 0.39947,0.0004 0.584,-0.01638z" fill="url(#color-33)"/><path d="M216.45094,200.31204c0.58455,0.14029 1.00543,0.37411 1.00543,0.58455c0,0.18705 -0.02338,0.32734 -0.04676,0.32734c-0.35073,0 -2.22128,-0.79498 -2.22128,-0.95866c0,-0.2572 0.04676,-0.2572 1.26262,0.04676z" fill="url(#color-34)"/><path d="M211.4706,200.52247c0.53779,0 2.85259,0.72484 2.7123,0.84175c-0.11691,0.11691 -2.01085,-0.2572 -2.59539,-0.49101c-0.30397,-0.14029 -0.3975,-0.11691 -0.30397,0.07014c0.09353,0.14029 0.49101,0.30397 0.86513,0.3975c0.74822,0.16367 0.95866,0.58455 0.30397,0.58455c-0.35073,0 -0.37411,0.04676 -0.07014,0.23382c0.5144,0.32735 0.70146,0.28058 0.70146,-0.14029c0,-0.28058 0.14029,-0.35073 0.53779,-0.25721c0.28058,0.07014 0.9119,0.21043 1.40292,0.28058c0.81837,0.16367 1.44968,0.58455 0.84175,0.58455c-0.65469,0 0.35072,0.67808 1.21585,0.81837c0.93527,0.16367 0.93527,0.16367 0.44425,0.5144c-0.32735,0.23382 -0.58455,0.28058 -0.67808,0.14029c-0.07014,-0.14029 -0.42087,-0.30397 -0.7716,-0.37412c-0.35073,-0.09353 -0.7716,-0.30397 -0.93527,-0.46763c-0.16367,-0.18705 -0.42087,-0.28059 -0.56116,-0.23383c-0.16367,0.04676 -1.30939,-0.30397 -2.57202,-0.79498c-1.35615,-0.53779 -2.10437,-0.91189 -1.82378,-0.98204c0.23382,-0.04676 0.53779,-0.21043 0.63131,-0.39749c0.09353,-0.18705 0.39749,-0.32735 0.65469,-0.32735zM213.64512,202.18258c-0.2572,0 -0.32734,0.07014 -0.14029,0.14029c0.16367,0.07014 0.37411,0.04676 0.44425,-0.02338c0.09353,-0.07014 -0.04676,-0.1403 -0.30397,-0.11692z" fill="url(#color-35)"/><path d="M214.72068,201.48113c0.18705,0 0.56117,0.09354 0.81837,0.21044c0.30397,0.11691 0.32734,0.21043 0.11691,0.21043c-0.18705,0 -0.56117,-0.09354 -0.81837,-0.21043c-0.30397,-0.11691 -0.32734,-0.21044 -0.11691,-0.21044z" fill="url(#color-36)"/><path d="M233.89383,201.69157c0.14029,0 0.23382,0.09354 0.23382,0.23382c0,0.11691 -0.09354,0.23382 -0.23382,0.23382c-0.11691,0 -0.23382,-0.11691 -0.23382,-0.23382c0,-0.14029 0.11691,-0.23382 0.23382,-0.23382z" fill="url(#color-37)"/><path d="M217.73695,202.39303c0.11691,0 0.28058,0.09353 0.35072,0.21043c0.14029,0.23382 -0.56117,0.58455 -0.74822,0.37412c-0.07014,-0.07014 0,-0.11691 0.16367,-0.11691c0.16367,0 0.21043,-0.11692 0.14029,-0.23382c-0.07014,-0.14029 -0.04675,-0.23382 0.09354,-0.23382z" fill="url(#color-38)"/><path d="M217.73695,204.26358c0.14029,0 0.30397,0.09354 0.37412,0.23382c0.07014,0.11691 -0.02339,0.23382 -0.21044,0.23382c-0.21043,0 -0.37412,-0.11692 -0.37412,-0.23382c0,-0.14029 0.09354,-0.23382 0.21044,-0.23382z" fill="url(#color-39)"/><path d="M233.19238,204.26358c0.11691,0 0.28058,0.09354 0.35073,0.23382c0.07014,0.11691 -0.07014,0.23382 -0.35073,0.23382c-0.28058,0 -0.42088,-0.11692 -0.35073,-0.23382c0.07014,-0.14029 0.23383,-0.23382 0.35073,-0.23382z" fill="url(#color-40)"/><path d="M218.95281,204.82474c1.98747,0.56117 2.47848,0.72484 2.7123,0.93527c0.21043,0.18705 0.11691,0.2572 -0.3975,0.2572c-0.35073,0 -0.65469,-0.11692 -0.6313,-0.23382c0.02338,-0.14029 -0.18705,-0.21043 -0.46763,-0.16367c-0.30397,0.04676 -0.53779,-0.02338 -0.53779,-0.14029c0,-0.11691 -0.23382,-0.32735 -0.5144,-0.49102c-0.30397,-0.14029 -0.37412,-0.23382 -0.16367,-0.16367z" fill="url(#color-41)"/><path d="M227.22999,204.73122c0.14029,0 0.3975,0.11691 0.58455,0.23382c0.18705,0.11691 0.2572,0.23383 0.11691,0.23383c-0.11691,0 -0.39749,-0.11692 -0.58454,-0.23383c-0.18705,-0.11691 -0.23382,-0.23382 -0.11691,-0.23382z" fill="url(#color-42)"/><path d="M235.29675,205.08194c0.70146,0.04676 1.37953,0.09353 1.49644,0.11691c0.09353,0 0.14029,0.14029 0.07014,0.32734c-0.07014,0.18705 0.02338,0.3975 0.23382,0.46764c0.21043,0.09353 0.30396,0.21043 0.21043,0.30397c-0.07014,0.07014 -0.58455,-0.07014 -1.12234,-0.32735c-0.56117,-0.2572 -1.26262,-0.60793 -1.58997,-0.74822c-0.49101,-0.21043 -0.37411,-0.23382 0.70146,-0.14029z" fill="url(#color-43)"/></g></g></svg>